<?xml version="1.0" encoding="UTF-8"?> <svg xmlns="http://www.w3.org/2000/svg" id="Layer_2" data-name="Layer 2" viewBox="0 0 274.65 141.73"><defs><style> .cls-1 { fill: none; stroke: #fff; stroke-width: 1px; } .cls-2 { fill: #fff; } </style></defs><g id="BIBA_Member_Hero_Blue" data-name="BIBA Member Hero Blue"><g><g><path class="cls-2" d="M150.12,96.92h4.07l-5.71-15.78h-4.45l-5.71,15.78h4.02l.94-2.79h5.89l.94,2.79ZM144.3,91.16l1.93-5.78,1.96,5.78h-3.89ZM161.14,97.1c1.02,0,1.91-.17,2.69-.5.77-.33,1.36-.78,1.77-1.36.41-.58.62-1.23.62-1.97-.02-.87-.24-1.56-.69-2.08-.44-.52-.96-.89-1.54-1.12-.58-.23-1.34-.47-2.27-.71-.81-.18-1.4-.36-1.79-.54-.38-.18-.57-.45-.57-.81,0-.3.12-.54.36-.71.24-.17.58-.26,1.03-.26.53,0,.95.13,1.27.38.32.25.51.6.57,1.03h3.55c-.13-1.29-.66-2.32-1.56-3.1-.91-.78-2.15-1.17-3.72-1.17-1.06,0-1.98.17-2.75.52-.77.35-1.36.81-1.75,1.4s-.6,1.25-.6,1.97c0,.85.22,1.53.65,2.03.43.5.95.87,1.55,1.1.6.23,1.35.45,2.25.66.84.21,1.45.4,1.82.57.37.17.56.44.56.8,0,.3-.13.54-.39.73-.26.19-.63.28-1.11.28-.52,0-.97-.13-1.33-.4-.36-.27-.56-.62-.61-1.06h-3.8c.06.81.34,1.54.83,2.19.5.65,1.17,1.17,2.02,1.54.86.38,1.83.56,2.92.56M173.8,97.1c1.02,0,1.92-.17,2.69-.5.77-.33,1.36-.78,1.78-1.36.41-.58.62-1.23.62-1.97-.02-.87-.24-1.56-.69-2.08-.44-.52-.96-.89-1.54-1.12-.58-.23-1.34-.47-2.27-.71-.81-.18-1.4-.36-1.79-.54-.38-.18-.57-.45-.57-.81,0-.3.12-.54.36-.71.24-.17.58-.26,1.03-.26.52,0,.95.13,1.27.38.32.25.51.6.57,1.03h3.55c-.13-1.29-.66-2.32-1.56-3.1-.91-.78-2.15-1.17-3.72-1.17-1.06,0-1.98.17-2.75.52-.77.35-1.36.81-1.75,1.4s-.6,1.25-.6,1.97c0,.85.22,1.53.65,2.03.43.5.95.87,1.55,1.1.6.23,1.35.45,2.25.66.84.21,1.45.4,1.82.57.38.17.56.44.56.8,0,.3-.13.54-.39.73-.26.19-.63.28-1.11.28-.52,0-.97-.13-1.32-.4-.36-.27-.56-.62-.61-1.06h-3.8c.06.81.34,1.54.83,2.19.5.65,1.17,1.17,2.02,1.54.85.38,1.83.56,2.92.56M187.06,97.1c1.23,0,2.34-.26,3.34-.79,1-.53,1.78-1.28,2.36-2.26.58-.98.87-2.12.87-3.4s-.28-2.43-.86-3.41c-.57-.98-1.35-1.74-2.34-2.26-.99-.52-2.1-.79-3.33-.79s-2.34.26-3.33.79c-.99.53-1.77,1.28-2.34,2.26-.57.98-.85,2.12-.85,3.41s.28,2.44.84,3.42c.56.97,1.33,1.72,2.32,2.25.98.52,2.09.79,3.32.79M187.06,93.77c-.74,0-1.35-.27-1.83-.81-.49-.54-.73-1.31-.73-2.31s.25-1.8.74-2.33c.5-.53,1.12-.8,1.87-.8s1.35.27,1.86.81c.5.54.75,1.31.75,2.32s-.26,1.77-.78,2.31c-.52.54-1.14.81-1.88.81M195.02,90.65c0,1.3.27,2.44.8,3.42.53.97,1.27,1.72,2.23,2.25.95.52,2.04.79,3.27.79,1.56,0,2.87-.42,3.94-1.26,1.06-.84,1.76-1.99,2.09-3.46h-4.09c-.35.96-1.01,1.44-2,1.44-.7,0-1.27-.27-1.69-.82-.42-.55-.63-1.33-.63-2.35s.21-1.8.63-2.35c.42-.55.98-.82,1.69-.82.99,0,1.66.48,2,1.44h4.09c-.33-1.5-1.02-2.66-2.08-3.49-1.06-.82-2.37-1.24-3.95-1.24-1.23,0-2.32.26-3.27.79-.95.53-1.69,1.27-2.23,2.25-.53.98-.8,2.11-.8,3.42M211.43,83.07c.66,0,1.2-.2,1.63-.6.43-.4.64-.89.64-1.47s-.21-1.1-.64-1.5c-.43-.4-.97-.6-1.63-.6s-1.22.2-1.65.6c-.43.4-.64.9-.64,1.5s.22,1.07.64,1.47c.43.4.98.6,1.65.6M209.5,96.92h3.85v-12.54h-3.85v12.54ZM215.48,90.62c0,1.29.24,2.43.73,3.41.49.98,1.15,1.74,1.99,2.27.84.53,1.77.8,2.79.8.88,0,1.66-.18,2.33-.54.67-.36,1.19-.83,1.56-1.42v1.77h3.85v-12.54h-3.85v1.78c-.36-.59-.87-1.06-1.54-1.42-.67-.36-1.44-.54-2.33-.54-1.03,0-1.97.26-2.81.79-.84.53-1.5,1.27-1.99,2.25-.49.98-.73,2.11-.73,3.39M224.88,90.65c0,.96-.26,1.72-.8,2.27-.53.55-1.18.83-1.94.83s-1.41-.28-1.95-.84c-.53-.56-.8-1.32-.8-2.28s.26-1.71.8-2.26c.53-.55,1.18-.82,1.95-.82s1.41.28,1.94.83c.53.56.8,1.31.8,2.27M237.24,93.66c-.42,0-.72-.08-.9-.25s-.27-.43-.27-.81v-5.04h2.52v-3.19h-2.52v-3.06h-3.85v3.06h-1.53v3.19h1.53v4.99c0,1.54.39,2.66,1.17,3.34.78.68,1.87,1.02,3.26,1.02h1.95v-3.26h-1.37ZM242.79,83.07c.66,0,1.2-.2,1.63-.6.43-.4.64-.89.64-1.47s-.21-1.1-.64-1.5c-.43-.4-.97-.6-1.63-.6s-1.22.2-1.65.6c-.43.4-.64.9-.64,1.5s.21,1.07.64,1.47c.43.4.98.6,1.65.6M240.86,96.92h3.85v-12.54h-3.85v12.54ZM253.32,97.1c1.23,0,2.34-.26,3.34-.79,1-.53,1.78-1.28,2.36-2.26.58-.98.86-2.12.86-3.4s-.28-2.43-.85-3.41c-.57-.98-1.35-1.74-2.34-2.26-.99-.52-2.1-.79-3.33-.79s-2.34.26-3.33.79c-.99.53-1.77,1.28-2.34,2.26-.57.98-.86,2.12-.86,3.41s.28,2.44.84,3.42c.56.97,1.34,1.72,2.32,2.25.98.52,2.09.79,3.32.79M253.32,93.77c-.73,0-1.34-.27-1.83-.81-.49-.54-.73-1.31-.73-2.31s.25-1.8.74-2.33c.49-.53,1.12-.8,1.87-.8s1.35.27,1.85.81c.5.54.75,1.31.75,2.32s-.26,1.77-.78,2.31c-.52.54-1.14.81-1.88.81M269.68,84.24c-.82,0-1.57.16-2.23.48-.66.32-1.19.76-1.57,1.32v-1.66h-3.84v12.54h3.84v-6.81c0-.84.22-1.49.65-1.96.43-.46,1.02-.7,1.75-.7s1.32.23,1.75.7c.43.46.65,1.12.65,1.96v6.81h3.82v-7.33c0-1.66-.44-2.97-1.31-3.92-.88-.95-2.05-1.43-3.52-1.43"></path><path class="cls-2" d="M150.38,65.34c.81-.24,1.46-.67,1.94-1.28.49-.61.73-1.39.73-2.31,0-1.26-.45-2.26-1.36-2.99-.91-.73-2.16-1.1-3.77-1.1h-7.11v15.78h7.35c1.65,0,2.93-.39,3.86-1.16.92-.77,1.38-1.82,1.38-3.14,0-.91-.28-1.73-.83-2.44-.55-.71-1.29-1.17-2.2-1.36M144.67,60.74h2.52c.63,0,1.11.14,1.45.43.34.29.51.7.51,1.24s-.17.95-.51,1.22c-.34.28-.82.41-1.45.41h-2.52v-3.3ZM147.5,70.33h-2.83v-3.48h2.79c.64,0,1.15.16,1.52.47.37.31.55.75.55,1.31s-.18.98-.53,1.27c-.35.29-.85.44-1.49.44M159.6,62.98v-2.09h-3.84v12.55h3.84v-5.82c0-1.03.24-1.76.72-2.17.48-.41,1.2-.62,2.16-.62h1.06v-4.07c-.83,0-1.57.2-2.25.6-.68.4-1.24.94-1.69,1.63M171.2,73.62c1.23,0,2.34-.26,3.34-.79,1-.53,1.78-1.28,2.36-2.26.58-.98.86-2.12.86-3.4s-.28-2.43-.85-3.41c-.57-.98-1.35-1.74-2.34-2.26-.99-.53-2.1-.79-3.33-.79s-2.34.26-3.33.79c-.99.52-1.77,1.28-2.34,2.26-.57.98-.85,2.12-.85,3.41s.28,2.44.84,3.42c.56.97,1.33,1.72,2.31,2.25.98.52,2.09.79,3.32.79M171.2,70.29c-.73,0-1.35-.27-1.83-.81-.49-.54-.73-1.31-.73-2.31s.25-1.8.74-2.33c.49-.53,1.12-.8,1.87-.8s1.35.27,1.85.81c.5.54.75,1.31.75,2.32s-.26,1.78-.78,2.31c-.52.54-1.14.81-1.88.81M192.36,73.44l-5.26-6.25,5.22-6.3h-4.74l-3.8,5.11v-9.2h-3.84v16.64h3.84v-5.26l3.82,5.26h4.77ZM205.76,66.96c0-1.26-.27-2.36-.8-3.31-.53-.94-1.27-1.67-2.21-2.18-.94-.51-2.02-.76-3.24-.76s-2.35.26-3.31.79c-.96.52-1.71,1.27-2.24,2.25-.53.97-.8,2.11-.8,3.42s.27,2.44.81,3.42c.54.97,1.29,1.72,2.25,2.25.96.52,2.05.79,3.28.79,1.02,0,1.94-.19,2.77-.56.82-.37,1.51-.89,2.06-1.55.55-.66.93-1.4,1.14-2.23h-4.09c-.38.81-1.04,1.21-2,1.21-.64,0-1.19-.21-1.63-.62-.44-.41-.69-1.01-.75-1.79h8.7c.04-.39.07-.76.07-1.12M197.01,65.95c.1-.69.38-1.22.82-1.6.44-.37.98-.56,1.63-.56s1.24.2,1.69.58c.45.39.68.91.68,1.57h-4.81ZM211.74,62.98v-2.09h-3.85v12.55h3.85v-5.82c0-1.03.24-1.76.72-2.17.48-.41,1.2-.62,2.16-.62h1.06v-4.07c-.83,0-1.57.2-2.25.6-.68.4-1.24.94-1.69,1.63M222.73,73.62c1.02,0,1.92-.16,2.69-.49.77-.33,1.36-.78,1.78-1.36.41-.58.62-1.23.62-1.97-.02-.87-.25-1.56-.69-2.08-.44-.52-.96-.89-1.54-1.12-.58-.23-1.34-.47-2.27-.71-.81-.18-1.4-.36-1.79-.54-.38-.18-.57-.45-.57-.81,0-.3.12-.54.36-.71.24-.17.58-.26,1.03-.26.53,0,.95.13,1.27.38s.51.6.57,1.03h3.55c-.13-1.29-.66-2.32-1.56-3.1-.91-.78-2.15-1.17-3.72-1.17-1.06,0-1.98.17-2.75.52-.77.35-1.36.81-1.75,1.4-.4.59-.6,1.25-.6,1.97,0,.85.22,1.53.65,2.03.43.5.95.87,1.55,1.1.6.23,1.35.45,2.25.66.84.21,1.45.4,1.82.57.38.17.56.44.56.8,0,.3-.13.54-.39.73-.26.19-.63.28-1.11.28-.53,0-.97-.13-1.33-.4-.36-.27-.56-.62-.61-1.06h-3.8c.06.81.34,1.54.83,2.19.5.65,1.17,1.17,2.02,1.54.85.38,1.83.56,2.92.56M232.73,56.79h-2.95v2.77h1.42v.36c0,.99-.39,1.49-1.17,1.49v1.46c1.03,0,1.82-.31,2.35-.92.53-.61.8-1.45.8-2.5,0-.87-.15-1.75-.45-2.65"></path><path class="cls-2" d="M140.83,49.96h3.84v-15.78h-3.84v15.78ZM155.21,37.28c-.82,0-1.57.16-2.23.48-.66.32-1.18.76-1.57,1.32v-1.66h-3.85v12.54h3.85v-6.81c0-.84.22-1.49.65-1.96.43-.46,1.02-.7,1.75-.7s1.32.23,1.75.7c.43.46.65,1.12.65,1.96v6.81h3.82v-7.33c0-1.66-.44-2.97-1.32-3.92-.88-.95-2.05-1.43-3.52-1.43M167.94,50.14c1.02,0,1.92-.17,2.69-.49.77-.33,1.36-.78,1.78-1.36.41-.58.62-1.23.62-1.97-.01-.87-.24-1.56-.68-2.08-.44-.52-.96-.89-1.54-1.12-.58-.23-1.34-.47-2.27-.71-.81-.18-1.4-.36-1.79-.54-.38-.18-.57-.45-.57-.81,0-.3.12-.54.36-.71.24-.17.58-.26,1.03-.26.52,0,.95.13,1.27.38.32.25.51.6.57,1.03h3.55c-.13-1.29-.66-2.32-1.56-3.1-.91-.78-2.15-1.17-3.72-1.17-1.06,0-1.98.17-2.75.52-.77.35-1.36.81-1.75,1.4-.4.59-.59,1.25-.59,1.97,0,.85.22,1.53.65,2.03s.95.87,1.55,1.1c.6.23,1.35.45,2.25.66.84.21,1.45.4,1.82.57.38.17.56.44.56.8,0,.3-.13.54-.39.73-.26.19-.63.28-1.11.28-.53,0-.97-.13-1.33-.4-.36-.27-.56-.62-.61-1.06h-3.8c.06.81.34,1.54.83,2.19.5.65,1.17,1.16,2.02,1.54.85.37,1.83.56,2.92.56M184.04,37.41v6.81c0,.84-.22,1.49-.65,1.96-.43.46-1.03.7-1.78.7s-1.32-.23-1.75-.7c-.43-.46-.65-1.12-.65-1.96v-6.81h-3.82v7.33c0,1.09.2,2.05.61,2.86.4.81.97,1.43,1.71,1.85.73.43,1.58.64,2.54.64.81,0,1.55-.17,2.21-.51.67-.34,1.2-.78,1.59-1.34v1.71h3.84v-12.54h-3.84ZM194.6,39.5v-2.09h-3.84v12.54h3.84v-5.82c0-1.03.24-1.76.72-2.17.48-.41,1.2-.62,2.16-.62h1.06v-4.07c-.83,0-1.57.2-2.25.59-.68.4-1.24.94-1.69,1.63M199.73,43.66c0,1.29.24,2.43.73,3.41.49.98,1.15,1.74,1.99,2.27.84.53,1.77.8,2.79.8.88,0,1.66-.18,2.33-.54.67-.36,1.19-.83,1.56-1.42v1.78h3.84v-12.54h-3.84v1.78c-.36-.58-.87-1.06-1.54-1.42-.67-.36-1.44-.54-2.33-.54-1.03,0-1.97.26-2.81.79-.84.52-1.5,1.27-1.99,2.25-.49.97-.73,2.11-.73,3.39M209.13,43.68c0,.96-.27,1.72-.8,2.27-.53.55-1.18.83-1.94.83s-1.41-.28-1.95-.84c-.53-.56-.8-1.32-.8-2.28s.27-1.71.8-2.26c.53-.55,1.18-.82,1.95-.82s1.41.28,1.94.83c.53.56.8,1.31.8,2.27M223.52,37.28c-.83,0-1.57.16-2.23.48-.66.32-1.18.76-1.57,1.32v-1.66h-3.85v12.54h3.85v-6.81c0-.84.22-1.49.65-1.96.43-.46,1.02-.7,1.75-.7s1.32.23,1.75.7c.43.46.65,1.12.65,1.96v6.81h3.82v-7.33c0-1.66-.44-2.97-1.32-3.92-.88-.95-2.05-1.43-3.52-1.43M230.37,43.68c0,1.3.27,2.44.8,3.42.53.98,1.27,1.72,2.23,2.25.95.53,2.04.79,3.27.79,1.56,0,2.87-.42,3.93-1.26,1.06-.84,1.76-1.99,2.09-3.46h-4.09c-.35.96-1.01,1.44-2,1.44-.71,0-1.27-.27-1.69-.82s-.63-1.33-.63-2.35.21-1.8.63-2.35c.42-.55.98-.82,1.69-.82.99,0,1.66.48,2,1.44h4.09c-.33-1.5-1.02-2.66-2.08-3.49-1.06-.83-2.37-1.24-3.95-1.24-1.23,0-2.32.26-3.27.79-.95.52-1.69,1.27-2.23,2.25-.53.97-.8,2.11-.8,3.42M256.68,43.48c0-1.26-.27-2.36-.8-3.31-.53-.94-1.27-1.67-2.21-2.18-.94-.51-2.02-.76-3.24-.76s-2.35.26-3.31.79c-.96.52-1.7,1.27-2.24,2.25-.53.97-.8,2.11-.8,3.42s.27,2.44.81,3.42c.54.98,1.29,1.72,2.25,2.25.96.53,2.05.79,3.28.79,1.02,0,1.94-.19,2.76-.56.82-.38,1.51-.89,2.06-1.55.55-.66.93-1.4,1.14-2.23h-4.09c-.38.81-1.04,1.21-2,1.21-.64,0-1.19-.21-1.63-.62-.44-.41-.69-1.01-.75-1.79h8.7c.05-.39.07-.76.07-1.12M247.93,42.47c.1-.69.38-1.22.82-1.6.44-.38.99-.56,1.63-.56s1.24.2,1.69.59c.45.39.68.91.68,1.57h-4.81Z"></path><path class="cls-2" d="M150.38,18.38c.81-.24,1.46-.67,1.94-1.28.49-.61.73-1.39.73-2.32,0-1.26-.45-2.25-1.36-2.99-.91-.73-2.16-1.1-3.77-1.1h-7.11v15.78h7.35c1.65,0,2.93-.38,3.86-1.16.92-.77,1.38-1.82,1.38-3.14,0-.91-.28-1.73-.83-2.44-.55-.71-1.29-1.17-2.2-1.36M144.67,13.77h2.52c.63,0,1.11.14,1.45.43.34.28.51.7.51,1.24s-.17.95-.51,1.23c-.34.28-.82.41-1.45.41h-2.52v-3.31ZM147.5,23.37h-2.83v-3.49h2.79c.64,0,1.15.16,1.52.47.37.31.55.75.55,1.3s-.18.98-.53,1.27c-.35.29-.85.44-1.49.44M159.6,16.02v-2.09h-3.84v12.54h3.84v-5.82c0-1.03.24-1.76.72-2.17.48-.41,1.2-.62,2.16-.62h1.06v-4.07c-.83,0-1.57.2-2.25.6-.68.4-1.24.94-1.69,1.63M167.42,12.62c.66,0,1.2-.2,1.63-.59.43-.4.64-.89.64-1.47s-.21-1.1-.64-1.5c-.43-.4-.97-.6-1.63-.6s-1.22.2-1.65.6c-.43.4-.64.9-.64,1.5s.21,1.07.64,1.47c.43.4.98.59,1.65.59M165.49,26.47h3.85v-12.54h-3.85v12.54ZM177.85,23.21c-.42,0-.72-.08-.9-.25-.18-.17-.27-.43-.27-.81v-5.04h2.52v-3.19h-2.52v-3.06h-3.84v3.06h-1.53v3.19h1.53v4.99c0,1.54.39,2.66,1.17,3.34.78.68,1.87,1.02,3.26,1.02h1.96v-3.26h-1.37ZM183.41,12.62c.66,0,1.2-.2,1.63-.59.43-.4.64-.89.64-1.47s-.21-1.1-.64-1.5c-.43-.4-.97-.6-1.63-.6s-1.22.2-1.65.6c-.43.4-.64.9-.64,1.5s.21,1.07.64,1.47c.43.4.98.59,1.65.59M181.47,26.47h3.84v-12.54h-3.84v12.54ZM193.32,26.65c1.02,0,1.91-.17,2.69-.5.77-.33,1.36-.78,1.78-1.36.41-.58.62-1.23.62-1.97-.02-.87-.24-1.56-.69-2.08-.44-.52-.96-.89-1.54-1.12-.58-.23-1.34-.47-2.27-.71-.81-.18-1.4-.36-1.79-.54-.38-.18-.57-.45-.57-.81,0-.3.12-.54.36-.71.24-.17.58-.26,1.03-.26.53,0,.95.13,1.27.38.32.25.51.6.57,1.03h3.55c-.13-1.29-.66-2.32-1.56-3.1-.91-.78-2.15-1.17-3.72-1.17-1.06,0-1.98.17-2.75.52-.77.35-1.36.81-1.75,1.4s-.59,1.25-.59,1.97c0,.85.22,1.53.65,2.03s.95.87,1.55,1.1c.6.23,1.35.45,2.25.66.84.21,1.45.4,1.82.57.37.17.56.44.56.8,0,.3-.13.54-.39.73-.26.19-.63.28-1.11.28-.53,0-.97-.13-1.33-.4s-.56-.62-.61-1.06h-3.8c.06.81.34,1.54.83,2.19.49.65,1.17,1.17,2.02,1.54.85.38,1.83.56,2.92.56M208.59,13.79c-.84,0-1.6.17-2.27.5-.68.33-1.21.77-1.6,1.33v-5.78h-3.85v16.64h3.85v-6.81c0-.84.22-1.49.65-1.96.43-.46,1.02-.7,1.75-.7s1.32.23,1.75.7c.43.46.65,1.12.65,1.96v6.81h3.82v-7.33c0-1.66-.43-2.97-1.3-3.92-.87-.95-2.02-1.43-3.46-1.43"></path></g><g><path class="cls-2" d="M156.48,118.5v14.58h-2.39v-9.99l-4.45,9.99h-1.66l-4.47-9.99v9.99h-2.39v-14.58h2.58l5.12,11.44,5.1-11.44h2.56Z"></path><path class="cls-2" d="M170.14,128.2h-8.83c.07.92.41,1.67,1.03,2.22.62.56,1.37.84,2.27.84,1.29,0,2.2-.54,2.73-1.62h2.58c-.35,1.06-.98,1.93-1.9,2.61-.92.68-2.05,1.02-3.41,1.02-1.1,0-2.1-.25-2.97-.74-.87-.5-1.56-1.2-2.06-2.1-.5-.9-.75-1.95-.75-3.14s.24-2.23.72-3.14c.48-.9,1.16-1.6,2.04-2.09.87-.49,1.88-.73,3.01-.73s2.06.24,2.92.71c.85.48,1.52,1.14,1.99,2s.71,1.85.71,2.97c0,.43-.03.83-.08,1.17ZM167.72,126.27c-.01-.88-.33-1.59-.94-2.12-.62-.53-1.38-.8-2.29-.8-.83,0-1.53.26-2.12.79-.59.52-.94,1.23-1.05,2.13h6.4Z"></path><path class="cls-2" d="M189.01,121.9c.72.38,1.29.94,1.7,1.68.41.74.62,1.64.62,2.69v6.82h-2.37v-6.46c0-1.04-.26-1.83-.78-2.38s-1.22-.83-2.12-.83-1.61.28-2.13.83-.79,1.35-.79,2.38v6.46h-2.37v-6.46c0-1.04-.26-1.83-.78-2.38s-1.22-.83-2.12-.83-1.61.28-2.13.83c-.52.55-.79,1.35-.79,2.38v6.46h-2.39v-11.56h2.39v1.32c.39-.48.89-.85,1.49-1.11.6-.27,1.25-.4,1.93-.4.92,0,1.75.2,2.48.59s1.29.96,1.68,1.7c.35-.7.9-1.25,1.64-1.67.74-.41,1.54-.62,2.39-.62.91,0,1.72.19,2.44.57Z"></path><path class="cls-2" d="M198.43,121.87c.71-.36,1.49-.54,2.36-.54,1.02,0,1.94.25,2.77.73.83.49,1.48,1.19,1.95,2.09.48.9.71,1.93.71,3.09s-.24,2.2-.71,3.12c-.48.92-1.13,1.63-1.96,2.14-.83.51-1.75.77-2.76.77-.9,0-1.69-.17-2.38-.52s-1.24-.8-1.65-1.34v1.68h-2.39v-15.53h2.39v5.69c.41-.56.96-1.02,1.67-1.37ZM203.3,125.19c-.33-.58-.76-1.02-1.3-1.32-.54-.3-1.12-.45-1.73-.45s-1.17.15-1.71.46c-.54.31-.97.76-1.3,1.34-.33.59-.49,1.28-.49,2.08s.16,1.49.49,2.09c.33.59.76,1.05,1.3,1.35.54.31,1.11.46,1.71.46s1.19-.16,1.73-.47c.54-.32.97-.77,1.3-1.38.33-.6.49-1.3.49-2.1s-.16-1.49-.49-2.07Z"></path><path class="cls-2" d="M219.11,128.2h-8.83c.07.92.41,1.67,1.03,2.22.62.56,1.37.84,2.27.84,1.29,0,2.2-.54,2.73-1.62h2.58c-.35,1.06-.98,1.93-1.9,2.61-.92.68-2.05,1.02-3.41,1.02-1.1,0-2.1-.25-2.97-.74-.87-.5-1.56-1.2-2.06-2.1-.5-.9-.75-1.95-.75-3.14s.24-2.23.72-3.14c.48-.9,1.16-1.6,2.04-2.09.87-.49,1.88-.73,3.01-.73s2.06.24,2.92.71c.85.48,1.52,1.14,1.99,2s.71,1.85.71,2.97c0,.43-.03.83-.08,1.17ZM216.7,126.27c-.01-.88-.33-1.59-.94-2.12-.62-.53-1.38-.8-2.29-.8-.83,0-1.53.26-2.12.79-.59.52-.94,1.23-1.05,2.13h6.4Z"></path><path class="cls-2" d="M225.33,121.83c.58-.33,1.27-.49,2.07-.49v2.48h-.61c-.94,0-1.65.24-2.13.71-.48.48-.72,1.3-.72,2.48v6.08h-2.39v-11.56h2.39v1.68c.35-.59.81-1.04,1.4-1.37Z"></path></g><line class="cls-1" x1="140.68" y1="107.87" x2="274.65" y2="107.87"></line><path class="cls-2" d="M108.28,70.08l2.31-.81c-.38,3.39-.77,5.64-1.49,7.02-1.54,2.93-3.54,2.32-3.54,2.32,0,0,1.32-2.34,1.99-4.86.51-1.93.73-3.67.73-3.67M66.06,118.13c9.59,11.26,1.66,23.6,1.66,23.6,0,0,.37-11.41-4.58-16.56-6.22-6.47-29.92-23.93-38.21-35.7-9.64-13.68-13.55-35.61,2.69-51.82,5.33-5.32,10.8-9.3,15.92-12.1-1.14,2.25-1.01,4.99.18,7.55-6.57,4.39-12.92,11.09-16.77,21.51-10.93,29.57,29.62,52.37,39.11,63.52M104.06,84.61h0c-.17-1.32-.86-3.75-.86-3.75-4.84,6.17-14.49,8.33-14.49,8.33,0,0,2.95,2.71,6.28,2.06,3.33-.65,4.52-3.41,4.52-3.41,0,0,.23.65.35,2.16.12,1.51-.66,3.5-.66,3.5,0,0,1.05-.28,2.54-1.78,1.5-1.5,2.1-3.67,2.1-3.67,0,0,0,0,0,0,.08-.3.14-.61.19-.93h0s0,0,0-.01c0-.07.02-.14.03-.2.02-.12.03-.25.04-.37,0-.04,0-.08,0-.12.01-.15.02-.31.02-.46,0-.45-.01-.89-.07-1.33,0,0,0-.02,0-.02M59.15,134.32s-.09-1.75-4.04-4.55c-3.92-2.78-8.61-5.52-12.77-8.16-10.28-6.51-16.13-10.16-24.86-18.32C-14.12,73.75-2.27,21.93,48.12,16.04c0,0,.86-.07,2.19.03-1.58-.84-4.64-1.93-10.1-2.15-8.66-.35-19.59,3.93-24.32,7.35-3.99,2.88-8.09,7.67-9.83,13.52,0,0-1.83-9.15,9.59-18.78S41.85,6.42,50.67,7.6c8.75,1.17,13.37,3.11,18.26,5.26-2.27-6.22-12.54-13.52-22.63-9.07,9.23-8.16,29.5-2.29,32.51,9.38.46,1.77.78,3.3,1,4.61,6.88-4.78.43-9,.43-9,0,0,2.66.1,5.06,2.51,3.7,3.73,2.57,10.91-.34,14.06,0,0,0,0-.01,0-2.73-2.01-5.45-3.48-7.32-3.72-5.66-.75-12.47,1.36-17.35,3.34-.27-.23-.67-.59-.93-.78-5.09-4.4-12.44-2.5-12.44-2.5C8.92,29.59-4.81,73.07,27.53,103.78c11.05,10.49,14.7,13.07,19.17,16.66,3.76,3.03,6.13,4.55,8.9,6.9,4.74,4.03,3.56,6.98,3.56,6.98M74,102.99c-12.06-12.14-30.39-22.59-33.46-38.12-1.85-9.41,2.51-18.73,7.45-26.61-1.14-.85-2.11-1.82-2.9-2.87-16.84,19.52-15.91,33.91-7.29,45.54,7.07,9.55,21.69,20.1,28.93,25.96,14.31,11.59,12.1,27.44,12.1,27.44,0,0,10.02-17.19-4.82-31.33M107.7,55.34c-4.11-4.01-15.27-12.24-15.27-12.24,0,0,.78-2.79-.57-6.8-1.36-4.01-14.02-11.48-14.02-11.48-8.89.9-13.35,3.82-13.35,3.82l-2.54,2.01c-.43-.61-4.1-5.57-10.22-6.13-7.78-.72-7.06,10.46,1.47,11.74,0,0-2.38-5.31-.08-6.77,1.52-.96,3.02.27,3.9,1.16.99,1.01,1.5,2.52,1.56,2.73-.46.83-3.37,6.29-4.17,12.87-1.25,10.31.99,18.55,9.59,24.18l7.13,3.78c.11-.41.34-1.1.76-2.26,1.09-2.98,5.23-3.06,5.23-3.06-1.79,3.59-2.08,5.32.78,7.83l.12.05c.48-5.11,5.5-8.04,9.04-6.58,0,0-2.33,1.57-3.31,5.21-.93,3.42,2.03,6.31,2.38,6.64,1.61-.19,13.72-1.68,16.04-4.17,2.16-2.31,3.39-6.74,3.15-8.94-1.06-2.26-4.1-3.33-7.5-4.5-3.4-1.17-2.39-5.25-2.39-5.25,0,0,3.01,1.79,5.01,2.53,2.01.74,3.38.82,5.68.4,3.21-.59,5.21.46,5.21.46,0,0,.47-3.2-3.65-7.21ZM73.39,45.61c-2.11-1.02-2.22-2.15-2.22-2.15,0,0,.2-1.15,3.88-1.49,3.68-.34,8.08-.09,8.26.37.18.46-.89,3.38-.89,3.38,0,0,4.28,2.17,4.15,2.57-.13.39-10.82-1.53-13.18-2.66Z"></path></g></g></svg> 